<svg width="25" height="24" viewBox="0 0 25 24" fill="none" xmlns="http://www.w3.org/2000/svg">
<path fill-rule="evenodd" clip-rule="evenodd" d="M8.67605 18C9.22205 18 9.66604 17.556 9.66604 17C9.66606 16.7365 9.56208 16.4837 9.3767 16.2964C9.19132 16.1092 8.93952 16.0026 8.67605 16H4.65604C4.5253 16.0004 4.39593 16.0266 4.27534 16.0771C4.15475 16.1276 4.04533 16.2015 3.95334 16.2944C3.86136 16.3873 3.78863 16.4974 3.73933 16.6185C3.69003 16.7396 3.66512 16.8693 3.66604 17C3.66603 17.2635 3.77001 17.5163 3.95539 17.7036C4.14077 17.8908 4.39256 17.9974 4.65604 18H8.67605ZM3.66604 7C3.66604 7.552 4.11104 8 4.65904 8H20.673C20.804 7.99987 20.9336 7.97387 21.0545 7.92348C21.1754 7.87309 21.2851 7.79932 21.3774 7.70639C21.4696 7.61347 21.5426 7.50322 21.5922 7.382C21.6417 7.26077 21.6668 7.13095 21.666 7C21.666 6.448 21.221 6 20.673 6H4.65904C4.52809 6.00013 4.39845 6.02613 4.27757 6.07652C4.1567 6.12691 4.04697 6.20068 3.9547 6.29361C3.86242 6.38653 3.78942 6.49678 3.73988 6.618C3.69035 6.73923 3.66525 6.86905 3.66604 7ZM14.664 13C14.7956 13.0004 14.9259 12.9748 15.0475 12.9247C15.1691 12.8746 15.2796 12.801 15.3727 12.7081C15.4658 12.6152 15.5396 12.5048 15.59 12.3833C15.6403 12.2618 15.6662 12.1315 15.666 12C15.666 11.448 15.21 11 14.664 11H4.66804C4.53652 10.9996 4.40621 11.0252 4.28459 11.0753C4.16298 11.1254 4.05245 11.199 3.95935 11.2919C3.86625 11.3848 3.79242 11.4952 3.74209 11.6167C3.69175 11.7382 3.66591 11.8685 3.66604 12C3.66604 12.552 4.12204 13 4.66804 13H14.664Z" fill="#374884"/>
</svg>
