<svg width="11" height="11" viewBox="0 0 11 11" fill="none" xmlns="http://www.w3.org/2000/svg">
<path d="M5.0186 0.516433C5.08256 0.314184 5.4413 0.322226 5.49411 0.527734C5.74327 1.49149 6.21888 2.9364 6.98132 3.74009C7.74426 4.54192 9.16444 5.09253 10.1139 5.38986C10.3161 5.45382 10.3062 5.81207 10.1007 5.86488C9.13699 6.11403 7.69393 6.59015 6.89024 7.35258C6.08655 8.11502 5.5378 9.53571 5.24047 10.4852C5.17651 10.6874 4.8164 10.677 4.76546 10.472C4.5163 9.50825 4.04019 8.0652 3.27589 7.26101C2.51345 6.45732 1.09277 5.90857 0.145173 5.61173C-0.057077 5.54777 -0.0485413 5.18717 0.15647 5.13622C1.12022 4.88707 2.56514 4.41145 3.36933 3.64715C4.17116 2.88422 4.72176 1.46403 5.0186 0.516433Z" fill="#757575"/>
</svg>
