<svg width="21" height="20" viewBox="0 0 21 20" fill="none" xmlns="http://www.w3.org/2000/svg">
<g clip-path="url(#clip0_4382_24886)">
<path d="M7.20703 15H13.457V16.25H7.20703V15Z" fill="#A0A9CB"/>
<path d="M8.45703 17.5H12.207V18.75H8.45703V17.5Z" fill="#A0A9CB"/>
<path d="M10.3324 1.25C8.67478 1.25 7.08507 1.90848 5.91296 3.08058C4.74086 4.25269 4.08238 5.8424 4.08238 7.5C4.04011 8.40834 4.21411 9.31373 4.59007 10.1417C4.96602 10.9696 5.53317 11.6965 6.24488 12.2625C6.86988 12.8438 7.20738 13.175 7.20738 13.75H8.45738C8.45738 12.6 7.76363 11.9562 7.08863 11.3375C6.50448 10.8902 6.03892 10.3064 5.73274 9.6374C5.42656 8.96838 5.28909 8.23448 5.33238 7.5C5.33238 6.17392 5.85916 4.90215 6.79685 3.96447C7.73453 3.02678 9.0063 2.5 10.3324 2.5C11.6585 2.5 12.9302 3.02678 13.8679 3.96447C14.8056 4.90215 15.3324 6.17392 15.3324 7.5C15.3749 8.23502 15.2365 8.96927 14.9292 9.63833C14.6219 10.3074 14.1552 10.8908 13.5699 11.3375C12.9011 11.9625 12.2074 12.5875 12.2074 13.75H13.4574C13.4574 13.175 13.7886 12.8438 14.4199 12.2563C15.1311 11.6912 15.698 10.9654 16.0739 10.1386C16.4499 9.31169 16.6242 8.40737 16.5824 7.5C16.5824 6.67924 16.4207 5.86651 16.1066 5.10823C15.7925 4.34994 15.3322 3.66095 14.7518 3.08058C14.1714 2.50022 13.4824 2.03984 12.7242 1.72575C11.9659 1.41166 11.1531 1.25 10.3324 1.25Z" fill="#A0A9CB"/>
</g>
<defs>
<clipPath id="clip0_4382_24886">
<rect width="20" height="20" fill="white" transform="translate(0.332031)"/>
</clipPath>
</defs>
</svg>
