<svg width="189" height="38" viewBox="0 0 189 38" fill="none" xmlns="http://www.w3.org/2000/svg">
<path d="M23.549 5.09009C24.7614 4.41265 26.2386 4.41265 27.451 5.09009L36.8744 10.3552C38.1395 11.062 38.9234 12.3979 38.9234 13.8471V24.1529C38.9234 25.6021 38.1395 26.938 36.8744 27.6448L27.451 32.9099C26.2386 33.5874 24.7614 33.5874 23.549 32.9099L14.1256 27.6448C12.8605 26.938 12.0766 25.6021 12.0766 24.1529V13.8471C12.0766 12.3979 12.8605 11.062 14.1256 10.3552L23.549 5.09009Z" fill="url(#paint0_linear_1827_2118)"/>
<path d="M21.25 19H19.5833C19.1231 19 18.75 19.3731 18.75 19.8333V25.6667C18.75 26.1269 19.1231 26.5 19.5833 26.5H21.25C21.7102 26.5 22.0833 26.1269 22.0833 25.6667V19.8333C22.0833 19.3731 21.7102 19 21.25 19Z" fill="white"/>
<path d="M26.25 12.3335H24.5833C24.1231 12.3335 23.75 12.7066 23.75 13.1668V25.6668C23.75 26.1271 24.1231 26.5002 24.5833 26.5002H26.25C26.7102 26.5002 27.0833 26.1271 27.0833 25.6668V13.1668C27.0833 12.7066 26.7102 12.3335 26.25 12.3335Z" fill="white"/>
<path d="M31.5 15H29.8333C29.3731 15 29 15.3731 29 15.8333V25C29 25.4602 29.3731 25.8333 29.8333 25.8333H31.5C31.9602 25.8333 32.3333 25.4602 32.3333 25V15.8333C32.3333 15.3731 31.9602 15 31.5 15Z" fill="white"/>
<path d="M56.06 26.5V17.18L52.42 24.12H50.88L47.24 17.18V26.5H44.48V12.3H47.44L51.64 20.38L55.88 12.3H58.82V26.5H56.06ZM67.8447 26.6C66.8047 26.6 65.858 26.4 65.0047 26C64.1647 25.6 63.438 25.06 62.8247 24.38C62.2247 23.6867 61.758 22.9133 61.4247 22.06C61.0914 21.1933 60.9247 20.3067 60.9247 19.4C60.9247 18.4533 61.098 17.5533 61.4447 16.7C61.8047 15.8333 62.2914 15.0667 62.9047 14.4C63.5314 13.72 64.2647 13.1867 65.1047 12.8C65.958 12.4 66.8914 12.2 67.9047 12.2C68.9314 12.2 69.8647 12.4067 70.7047 12.82C71.558 13.2333 72.2847 13.7867 72.8847 14.48C73.4847 15.1733 73.9514 15.9467 74.2847 16.8C74.618 17.6533 74.7847 18.5333 74.7847 19.44C74.7847 20.3733 74.6114 21.2733 74.2647 22.14C73.918 22.9933 73.4314 23.76 72.8047 24.44C72.1914 25.1067 71.458 25.6333 70.6047 26.02C69.7647 26.4067 68.8447 26.6 67.8447 26.6ZM63.7247 19.4C63.7247 20.0133 63.818 20.6067 64.0047 21.18C64.1914 21.7533 64.458 22.2667 64.8047 22.72C65.1647 23.16 65.598 23.5133 66.1047 23.78C66.6247 24.0333 67.2114 24.16 67.8647 24.16C68.5314 24.16 69.1247 24.0267 69.6447 23.76C70.1647 23.48 70.598 23.1133 70.9447 22.66C71.2914 22.1933 71.5514 21.68 71.7247 21.12C71.9114 20.5467 72.0047 19.9733 72.0047 19.4C72.0047 18.7867 71.9047 18.2 71.7047 17.64C71.518 17.0667 71.2447 16.56 70.8847 16.12C70.538 15.6667 70.1047 15.3133 69.5847 15.06C69.078 14.7933 68.5047 14.66 67.8647 14.66C67.1847 14.66 66.5847 14.8 66.0647 15.08C65.558 15.3467 65.1314 15.7067 64.7847 16.16C64.438 16.6133 64.1714 17.12 63.9847 17.68C63.8114 18.24 63.7247 18.8133 63.7247 19.4ZM88.3419 22.84C88.3419 23.64 88.1352 24.3133 87.7219 24.86C87.3085 25.3933 86.7485 25.8 86.0419 26.08C85.3485 26.36 84.5885 26.5 83.7619 26.5H76.9019V12.3H84.5019C85.1685 12.3 85.7419 12.48 86.2219 12.84C86.7152 13.1867 87.0885 13.64 87.3419 14.2C87.6085 14.7467 87.7419 15.32 87.7419 15.92C87.7419 16.6 87.5685 17.2467 87.2219 17.86C86.8752 18.4733 86.3685 18.9267 85.7019 19.22C86.5152 19.46 87.1552 19.8933 87.6219 20.52C88.1019 21.1467 88.3419 21.92 88.3419 22.84ZM85.5619 22.32C85.5619 21.96 85.4885 21.64 85.3419 21.36C85.1952 21.0667 84.9952 20.84 84.7419 20.68C84.5019 20.5067 84.2219 20.42 83.9019 20.42H79.6619V24.16H83.7619C84.0952 24.16 84.3952 24.08 84.6619 23.92C84.9419 23.7467 85.1619 23.52 85.3219 23.24C85.4819 22.96 85.5619 22.6533 85.5619 22.32ZM79.6619 14.66V18.24H83.3419C83.6485 18.24 83.9285 18.1667 84.1819 18.02C84.4352 17.8733 84.6352 17.6667 84.7819 17.4C84.9419 17.1333 85.0219 16.8133 85.0219 16.44C85.0219 16.08 84.9485 15.7667 84.8019 15.5C84.6685 15.2333 84.4819 15.0267 84.2419 14.88C84.0152 14.7333 83.7552 14.66 83.4619 14.66H79.6619Z" fill="white"/>
<path d="M99.54 26.6C98.5 26.6 97.5533 26.4 96.7 26C95.86 25.6 95.1333 25.06 94.52 24.38C93.92 23.6867 93.4533 22.9133 93.12 22.06C92.7867 21.1933 92.62 20.3067 92.62 19.4C92.62 18.4533 92.7933 17.5533 93.14 16.7C93.5 15.8333 93.9867 15.0667 94.6 14.4C95.2267 13.72 95.96 13.1867 96.8 12.8C97.6533 12.4 98.5867 12.2 99.6 12.2C100.627 12.2 101.56 12.4067 102.4 12.82C103.253 13.2333 103.98 13.7867 104.58 14.48C105.18 15.1733 105.647 15.9467 105.98 16.8C106.313 17.6533 106.48 18.5333 106.48 19.44C106.48 20.3733 106.307 21.2733 105.96 22.14C105.613 22.9933 105.127 23.76 104.5 24.44C103.887 25.1067 103.153 25.6333 102.3 26.02C101.46 26.4067 100.54 26.6 99.54 26.6ZM95.42 19.4C95.42 20.0133 95.5133 20.6067 95.7 21.18C95.8867 21.7533 96.1533 22.2667 96.5 22.72C96.86 23.16 97.2933 23.5133 97.8 23.78C98.32 24.0333 98.9067 24.16 99.56 24.16C100.227 24.16 100.82 24.0267 101.34 23.76C101.86 23.48 102.293 23.1133 102.64 22.66C102.987 22.1933 103.247 21.68 103.42 21.12C103.607 20.5467 103.7 19.9733 103.7 19.4C103.7 18.7867 103.6 18.2 103.4 17.64C103.213 17.0667 102.94 16.56 102.58 16.12C102.233 15.6667 101.8 15.3133 101.28 15.06C100.773 14.7933 100.2 14.66 99.56 14.66C98.88 14.66 98.28 14.8 97.76 15.08C97.2533 15.3467 96.8267 15.7067 96.48 16.16C96.1333 16.6133 95.8667 17.12 95.68 17.68C95.5067 18.24 95.42 18.8133 95.42 19.4ZM108.597 26.5V12.3H114.877C115.531 12.3 116.131 12.4333 116.677 12.7C117.237 12.9667 117.717 13.3267 118.117 13.78C118.531 14.2333 118.844 14.74 119.057 15.3C119.284 15.86 119.397 16.4333 119.397 17.02C119.397 17.62 119.291 18.2 119.077 18.76C118.877 19.3067 118.584 19.7867 118.197 20.2C117.811 20.6133 117.357 20.9333 116.837 21.16L120.077 26.5H117.037L114.117 21.74H111.357V26.5H108.597ZM111.357 19.32H114.817C115.164 19.32 115.471 19.22 115.737 19.02C116.004 18.8067 116.217 18.5267 116.377 18.18C116.537 17.8333 116.617 17.4467 116.617 17.02C116.617 16.5667 116.524 16.1733 116.337 15.84C116.151 15.4933 115.911 15.22 115.617 15.02C115.337 14.82 115.031 14.72 114.697 14.72H111.357V19.32ZM133.338 22.84C133.338 23.64 133.131 24.3133 132.718 24.86C132.305 25.3933 131.745 25.8 131.038 26.08C130.345 26.36 129.585 26.5 128.758 26.5H121.898V12.3H129.498C130.165 12.3 130.738 12.48 131.218 12.84C131.711 13.1867 132.085 13.64 132.338 14.2C132.605 14.7467 132.738 15.32 132.738 15.92C132.738 16.6 132.565 17.2467 132.218 17.86C131.871 18.4733 131.365 18.9267 130.698 19.22C131.511 19.46 132.151 19.8933 132.618 20.52C133.098 21.1467 133.338 21.92 133.338 22.84ZM130.558 22.32C130.558 21.96 130.485 21.64 130.338 21.36C130.191 21.0667 129.991 20.84 129.738 20.68C129.498 20.5067 129.218 20.42 128.898 20.42H124.658V24.16H128.758C129.091 24.16 129.391 24.08 129.658 23.92C129.938 23.7467 130.158 23.52 130.318 23.24C130.478 22.96 130.558 22.6533 130.558 22.32ZM124.658 14.66V18.24H128.338C128.645 18.24 128.925 18.1667 129.178 18.02C129.431 17.8733 129.631 17.6667 129.778 17.4C129.938 17.1333 130.018 16.8133 130.018 16.44C130.018 16.08 129.945 15.7667 129.798 15.5C129.665 15.2333 129.478 15.0267 129.238 14.88C129.011 14.7333 128.751 14.66 128.458 14.66H124.658ZM135.492 26.5V12.3H138.252V26.5H135.492ZM151.834 14.72H147.294V26.5H144.554V14.72H140.014V12.3H151.834V14.72Z" fill="#FFE055"/>
<path d="M172.759 6.44495H178.069L169.369 19.1749L177.789 31.5549H172.479L166.569 22.6449L160.629 31.5549H155.289L172.759 6.44495Z" fill="#FFE055"/>
<path d="M158.87 12.1049L155 6.44495H160.34L164.31 12.1049" fill="#FFE055"/>
<defs>
<linearGradient id="paint0_linear_1827_2118" x1="25.5" y1="4" x2="25.5" y2="34" gradientUnits="userSpaceOnUse">
<stop stop-color="#FFE055"/>
<stop offset="1" stop-color="#DEB600"/>
</linearGradient>
</defs>
</svg>
